<svg xmlns="http://www.w3.org/2000/svg" width="256" height="256" viewBox="0 0 100 100">
    <rect width="100" height="100" rx="20" fill="#0fc30f"></rect>
    <path d="M20.29 52.51L20.29 52.51Q12.45 50.25 8.88 46.97Q5.31 43.68 5.31 38.86L5.31 38.86Q5.31 33.40 9.68 29.83Q14.04 26.26 21.02 26.26L21.02 26.26Q25.78 26.26 29.51 28.10Q33.24 29.94 35.29 33.18Q37.34 36.42 37.34 40.26L37.34 40.26L31.21 40.26Q31.21 36.07 28.54 33.67Q25.88 31.27 21.02 31.27L21.02 31.27Q16.52 31.27 13.99 33.26Q11.47 35.24 11.47 38.76L11.47 38.76Q11.47 41.59 13.87 43.54Q16.26 45.49 22.02 47.11Q27.78 48.73 31.04 50.68Q34.29 52.63 35.86 55.24Q37.43 57.84 37.43 61.36L37.43 61.36Q37.43 66.98 33.05 70.36Q28.67 73.74 21.34 73.74L21.34 73.74Q16.58 73.74 12.45 71.92Q8.33 70.09 6.09 66.92Q3.85 63.74 3.85 59.71L3.85 59.71L9.98 59.71Q9.98 63.90 13.07 66.33Q16.17 68.76 21.34 68.76L21.34 68.76Q26.16 68.76 28.74 66.79Q31.31 64.82 31.31 61.43Q31.31 58.03 28.93 56.17Q26.55 54.32 20.29 52.51ZM47.91 26.89L55.21 58.54L56.09 64.63L57.40 59.14L66.54 26.89L71.68 26.89L80.60 59.14L81.87 64.73L82.85 58.51L90.02 26.89L96.15 26.89L84.94 73.11L79.39 73.11L69.87 39.43L69.14 35.91L68.41 39.43L58.54 73.11L52.98 73.11L41.81 26.89L47.91 26.89Z"
          fill="#000000"></path>
</svg>